# xmcd CD database file
#
# Track frame offsets:
#	150
#	27731
#	49399
#	71537
#	95815
#	116633
#	130582
#	150646
#	176707
#	197795
#	223066
#	241127
#	270622
#	295366
#	314158
#	334821
#
# Disc length: 4783 seconds
#
# Revision: 0
# Processed by: cddbd v1.5.2PL0 Copyright (c) Steve Scherf et al.
# Submitted via: Feurio! 1.68 - http://www.feurio.com
#
DISCID=0312ad10
DTITLE=Various Artist - A Blast From The Past Vol 1
DYEAR=1900
DGENRE=R&B
TTITLE0=Lenny White - East St. Louis
TTITLE1=George Michael w/Mary J. Blige - As
TTITLE2=Rockie Robbins - You and Me
TTITLE3=Karen White - Love Saw It
TTITLE4=Boy George - Mistake No. 3
TTITLE5=Hamilton, Joe and Reynolds - Fallin' In Love
TTITLE6=Valentine Brothers - Lonely Nights
TTITLE7=Freddie McGreggor - Playin' Hard To Get
TTITLE8=Toni Braxton - Candlelight
TTITLE9=Lisa Stansfield - Never Gonna Give You Up
TTITLE10=Angel Grant - Lil'l Red Boat
TTITLE11=Andela Winbush - Keep Turnin' Me On
TTITLE12=Mike Davis - All Alone
TTITLE13=Con Funk Shun - By Your Side
TTITLE14=Ben Tankard - Livin' For You
TTITLE15=Luther Vandross - What The World Needs Now
EXTD=
EXTT0=
EXTT1=
EXTT2=
EXTT3=
EXTT4=
EXTT5=
EXTT6=
EXTT7=
EXTT8=
EXTT9=
EXTT10=
EXTT11=
EXTT12=
EXTT13=
EXTT14=
EXTT15=
PLAYORDER=
